REM DIRINDEX 1\2,1\4,1\3\5,1\3\6,1\3\7
REM DIRNAME folder01,folder02,folder03,folder04,folder05,folder06,folder07
TITLE ""
FILE "CD1Track17.mp3" MP3
  TRACK 01 AUDIO
    TITLE "0:"
    INDEX 01 00:00:00
  TRACK 02 AUDIO
    TITLE "5:cjc083_0344"
    INDEX 01 00:00:29
  TRACK 03 AUDIO
    TITLE "0:"
    INDEX 01 00:01:66
  TRACK 04 AUDIO
    TITLE "6:cjc083_0345"
    INDEX 01 00:02:32
  TRACK 05 AUDIO
    TITLE "0:"
    INDEX 01 00:04:25
  TRACK 06 AUDIO
    TITLE "5:cjc083_0346"
    INDEX 01 00:04:68
  TRACK 07 AUDIO
    TITLE "0:"
    INDEX 01 00:06:37
  TRACK 08 AUDIO
    TITLE "6:cjc083_0347"
    INDEX 01 00:07:05
  TRACK 09 AUDIO
    TITLE "0:"
    INDEX 01 00:08:70
  TRACK 10 AUDIO
    TITLE "5:cjc083_0348"
    INDEX 01 00:09:42
  TRACK 11 AUDIO
    TITLE "0:"
    INDEX 01 00:10:70
  TRACK 12 AUDIO
    TITLE "6:cjc083_0349"
    INDEX 01 00:11:40
  TRACK 13 AUDIO
    TITLE "0:"
    INDEX 01 00:13:51
  TRACK 14 AUDIO
    TITLE "5:cjc083_0350"
    INDEX 01 00:14:15
  TRACK 15 AUDIO
    TITLE "0:"
    INDEX 01 00:15:25
  TRACK 16 AUDIO
    TITLE "6:cjc083_0351"
    INDEX 01 00:15:70
  TRACK 17 AUDIO
    TITLE "0:"
    INDEX 01 00:18:01
  TRACK 18 AUDIO
    TITLE "5:cjc083_0352"
    INDEX 01 00:18:44
  TRACK 19 AUDIO
    TITLE "0:"
    INDEX 01 00:19:54
  TRACK 20 AUDIO
    TITLE "6:cjc083_0353"
    INDEX 01 00:20:22
  TRACK 21 AUDIO
    TITLE "0:"
    INDEX 01 00:21:37
  TRACK 22 AUDIO
    TITLE "5:cjc083_0354"
    INDEX 01 00:22:03
  TRACK 23 AUDIO
    TITLE "0:"
    INDEX 01 00:23:34
  TRACK 24 AUDIO
    TITLE "6:cjc083_0355"
    INDEX 01 00:24:06
  TRACK 25 AUDIO
    TITLE "0:"
    INDEX 01 00:25:19
  TRACK 26 AUDIO
    TITLE "5:cjc083_0356"
    INDEX 01 00:25:68
  TRACK 27 AUDIO
    TITLE "0:"
    INDEX 01 00:27:55
  TRACK 28 AUDIO
    TITLE "6:cjc083_0357"
    INDEX 01 00:28:19
  TRACK 29 AUDIO
    TITLE "0:"
    INDEX 01 00:29:42
  TRACK 30 AUDIO
    TITLE "5:cjc083_0358"
    INDEX 01 00:30:10
  TRACK 31 AUDIO
    TITLE "0:"
    INDEX 01 00:31:16
  TRACK 32 AUDIO
    TITLE "6:cjc083_0359"
    INDEX 01 00:31:59
  TRACK 33 AUDIO
    TITLE "0:"
    INDEX 01 00:33:07
  TRACK 34 AUDIO
    TITLE "5:cjc083_0360"
    INDEX 01 00:33:46
  TRACK 35 AUDIO
    TITLE "0:"
    INDEX 01 00:34:55
  TRACK 36 AUDIO
    TITLE "6:cjc083_0361"
    INDEX 01 00:35:21
  TRACK 37 AUDIO
    TITLE "0:"
    INDEX 01 00:36:56
  TRACK 38 AUDIO
    TITLE "5:cjc083_0362"
    INDEX 01 00:37:22
  TRACK 39 AUDIO
    TITLE "0:"
    INDEX 01 00:38:41
  TRACK 40 AUDIO
    TITLE "6:cjc083_0363"
    INDEX 01 00:39:17
  TRACK 41 AUDIO
    TITLE "0:"
    INDEX 01 00:40:38
  TRACK 42 AUDIO
    TITLE "5:cjc083_0364"
    INDEX 01 00:41:04
  TRACK 43 AUDIO
    TITLE "0:"
    INDEX 01 00:42:18
  TRACK 44 AUDIO
    TITLE "6:cjc083_0365"
    INDEX 01 00:42:63
  TRACK 45 AUDIO
    TITLE "0:"
    INDEX 01 00:44:07
  TRACK 46 AUDIO
    TITLE "5:cjc083_0366"
    INDEX 01 00:44:54
  TRACK 47 AUDIO
    TITLE "0:"
    INDEX 01 00:45:67
  TRACK 48 AUDIO
    TITLE "6:cjc083_0367"
    INDEX 01 00:46:39
  TRACK 49 AUDIO
    TITLE "0:"
    INDEX 01 00:48:73
  TRACK 50 AUDIO
    TITLE "5:cjc083_0368"
    INDEX 01 00:49:45
  TRACK 51 AUDIO
    TITLE "0:"
    INDEX 01 00:50:58
  TRACK 52 AUDIO
    TITLE "6:cjc083_0369"
    INDEX 01 00:51:28
  TRACK 53 AUDIO
    TITLE "0:"
    INDEX 01 00:53:64
  TRACK 54 AUDIO
    TITLE "5:cjc083_0370"
    INDEX 01 00:54:36
  TRACK 55 AUDIO
    TITLE "0:"
    INDEX 01 00:56:37
  TRACK 56 AUDIO
    TITLE "6:cjc083_0371"
    INDEX 01 00:57:05
  TRACK 57 AUDIO
    TITLE "0:"
    INDEX 01 00:59:18
  TRACK 58 AUDIO
    TITLE "5:cjc083_0372"
    INDEX 01 00:59:63
  TRACK 59 AUDIO
    TITLE "0:"
    INDEX 01 01:00:70
  TRACK 60 AUDIO
    TITLE "6:cjc083_0373"
    INDEX 01 01:01:40
  TRACK 61 AUDIO
    TITLE "0:"
    INDEX 01 01:04:00
  TRACK 62 AUDIO
    TITLE "7:cjc083_0374"
    INDEX 01 01:05:42
  TRACK 63 AUDIO
    TITLE "0:"
    INDEX 01 01:16:01
